<svg width="54" height="65" viewBox="0 0 54 65" fill="none" xmlns="http://www.w3.org/2000/svg">
<path d="M40.5547 62.4001L27.4042 57.5M27.4042 57.5V44.2999M27.4042 57.5L14.2547 62.4001M27.4042 10.3999V27.3999M27.4042 27.3999L35.9543 19.1999V15M27.4042 27.3999V44.2999M27.4042 27.3999L18.8542 19.1999L18.8542 15M27.4042 44.2999L35.5637 36.3999M27.4042 44.2999L19.2448 36.3999M41.5543 24.5V30.5999L35.5637 36.3999M35.5637 36.3999V29.6999M13.2542 24.5V30.5999L19.2448 36.3999M19.2448 36.3999V29.6999M51.8999 27C51.8999 40.531 40.9309 51.5 27.3999 51.5C13.8689 51.5 2.8999 40.531 2.8999 27C2.8999 13.469 13.8689 2.5 27.3999 2.5C40.9309 2.5 51.8999 13.469 51.8999 27Z" stroke="white" stroke-width="4"/>
</svg>
