<svg width="56" height="34" viewBox="0 0 56 34" fill="none" xmlns="http://www.w3.org/2000/svg">
<mask id="mask0_9477_1508" style="mask-type:luminance" maskUnits="userSpaceOnUse" x="0" y="0" width="56" height="34">
<path d="M54.1827 5.97595L44.4873 0.338506C42.8572 -0.606541 40.8162 0.569221 40.8162 2.44867V16.6945L33.9347 12.7315C30.245 10.6089 25.7079 10.6151 22.0298 12.7439L15.1784 16.7078V2.44423C15.1784 0.563897 13.1437 -0.611865 11.5136 0.334069L1.81733 5.9724C0.690372 6.62639 0 7.8341 0 9.13409V22.5271C0 23.4598 0.230716 24.356 0.666413 25.1466H0.6673C1.103 25.9541 1.74279 26.6436 2.53965 27.1539L7.53641 30.3404L11.3627 32.7789C13.6593 34.2413 16.6213 34.1233 18.7927 32.4869L19.0784 32.2633C19.1059 32.2438 19.1325 32.2234 19.1609 32.203L24.9297 27.799C26.6166 26.5096 29.379 26.5096 31.0659 27.799L36.816 32.1835C36.8249 32.1906 36.8337 32.1968 36.8426 32.203L37.2011 32.4825C39.3725 34.1259 42.3345 34.2368 44.631 32.7753L48.4583 30.3351L53.4674 27.1423C54.2572 26.6321 54.8917 25.9426 55.3274 25.1458C55.7631 24.3498 55.9991 23.458 55.9991 22.5183V9.13764H56C56 7.83676 55.3087 6.62994 54.1827 5.97595Z" fill="white"/>
</mask>
<g mask="url(#mask0_9477_1508)">
<path d="M54.1827 5.97595L44.4873 0.338506C42.8572 -0.606541 40.8162 0.569221 40.8162 2.44867V16.6945L33.9347 12.7315C30.245 10.6089 25.7079 10.6151 22.0298 12.7439L15.1784 16.7078V2.44423C15.1784 0.563897 13.1437 -0.611865 11.5136 0.334069L1.81733 5.9724C0.690372 6.62639 0 7.8341 0 9.13409V22.5271C0 23.4598 0.230716 24.356 0.666413 25.1466H0.6673C1.103 25.9541 1.74279 26.6436 2.53965 27.1539L7.53641 30.3404L11.3627 32.7789C13.6593 34.2413 16.6213 34.1233 18.7927 32.4869L19.0784 32.2633C19.1059 32.2438 19.1325 32.2234 19.1609 32.203L24.9297 27.799C26.6166 26.5096 29.379 26.5096 31.0659 27.799L36.816 32.1835C36.8249 32.1906 36.8337 32.1968 36.8426 32.203L37.2011 32.4825C39.3725 34.1259 42.3345 34.2368 44.631 32.7753L48.4583 30.3351L53.4674 27.1423C54.2572 26.6321 54.8917 25.9426 55.3274 25.1458C55.7631 24.3498 55.9991 23.458 55.9991 22.5183V9.13764H56C56 7.83676 55.3087 6.62994 54.1827 5.97595Z" fill="url(#paint0_linear_9477_1508)"/>
<path d="M40.8961 25.3827V30.1914C40.8961 31.676 39.8348 32.8863 38.5464 32.8863C38.0423 32.8863 37.4096 32.6334 36.8169 32.1835L31.0667 27.799C29.3799 26.5097 26.6175 26.5097 24.9306 27.799L19.1618 32.2031C18.5877 32.6361 18.2168 32.7603 17.6702 32.7648C16.3285 32.7754 15.1358 31.7762 15.1367 30.1985V25.4032L23.3813 20.0807C26.2066 18.2563 29.8227 18.2563 32.6418 20.0807L40.8961 25.2825V25.3827Z" fill="url(#paint1_linear_9477_1508)"/>
<path d="M40.8179 16.6945L40.8365 25.4564L32.6408 20.2165C29.8216 18.4116 26.2056 18.4116 23.3811 20.2165L15.1641 25.4661L15.1774 16.7078L22.0305 12.7431C25.7087 10.6143 30.2449 10.6081 33.9354 12.7306L40.8187 16.6945H40.8179Z" fill="url(#paint2_linear_9477_1508)"/>
<path d="M55.9993 9.13751V22.5172C55.9993 23.457 55.7632 24.3497 55.3275 25.1456L40.8164 16.6988V2.44765C40.8164 0.568202 42.8574 -0.60756 44.4874 0.337486L54.1828 5.97582C55.3089 6.62981 56.0002 7.83574 56.0002 9.13751H55.9993Z" fill="url(#paint3_linear_9477_1508)"/>
<path d="M15.1784 2.44432V16.7079L0.666413 25.1467C0.230716 24.3561 0 23.4598 0 22.5272V9.13418C0 7.83419 0.690372 6.62648 1.81733 5.97249L11.5127 0.335046C13.1428 -0.610888 15.1775 0.564874 15.1775 2.44521L15.1784 2.44432Z" fill="url(#paint4_linear_9477_1508)"/>
<path d="M38.3445 32.7123C39.632 32.7123 40.8397 31.698 40.8397 30.2295L40.8335 25.4199L48.4977 30.3093L44.6306 32.7753C42.3341 34.2377 39.372 34.1259 37.2006 32.4825L36.8359 32.1976C37.3834 32.5686 37.8422 32.7123 38.3471 32.7123H38.3462H38.3445Z" fill="url(#paint5_linear_9477_1508)"/>
<path d="M55.3275 25.1446C54.8918 25.9415 54.2565 26.631 53.4676 27.1412L48.4584 30.334L40.835 25.4552L40.8164 16.6934L55.3284 25.1438L55.3275 25.1446Z" fill="url(#paint6_linear_9477_1508)"/>
<path d="M15.1772 30.2286C15.1772 31.6972 16.3929 32.8561 17.6724 32.7115C18.2404 32.6476 18.6805 32.5633 19.141 32.2146L18.7923 32.487C16.6209 34.1233 13.6589 34.2413 11.3624 32.7789L7.53516 30.3387V30.3324L15.1781 25.4546V30.2269V30.2277L15.1772 30.2286Z" fill="url(#paint7_linear_9477_1508)"/>
<path d="M15.1791 16.7061V25.4555L7.53708 30.3342V30.3405L2.54031 27.1539C1.74346 26.6437 1.10278 25.9524 0.667969 25.144L15.18 16.7061H15.1791Z" fill="url(#paint8_linear_9477_1508)"/>
</g>
<defs>
<linearGradient id="paint0_linear_9477_1508" x1="30.127" y1="36.7392" x2="25.7177" y2="-6.50576" gradientUnits="userSpaceOnUse">
<stop stop-color="#75BE2C"/>
<stop offset="0.86" stop-color="#9DC03B"/>
</linearGradient>
<linearGradient id="paint1_linear_9477_1508" x1="28.016" y1="18.7124" x2="28.016" y2="32.8863" gradientUnits="userSpaceOnUse">
<stop stop-color="#238D37"/>
<stop offset="0.94" stop-color="#35537F"/>
</linearGradient>
<linearGradient id="paint2_linear_9477_1508" x1="26.5117" y1="11.3703" x2="28.7097" y2="25.8033" gradientUnits="userSpaceOnUse">
<stop stop-color="#67D84D"/>
<stop offset="1" stop-color="#348522"/>
</linearGradient>
<linearGradient id="paint3_linear_9477_1508" x1="48.4087" y1="0.00383593" x2="48.4087" y2="25.1447" gradientUnits="userSpaceOnUse">
<stop stop-color="#E4D00A"/>
<stop offset="0.56" stop-color="#C4D132"/>
</linearGradient>
<linearGradient id="paint4_linear_9477_1508" x1="7.58877" y1="0.000507891" x2="7.58877" y2="25.1467" gradientUnits="userSpaceOnUse">
<stop stop-color="#E4D00A"/>
<stop offset="0.56" stop-color="#C4D132"/>
</linearGradient>
<linearGradient id="paint5_linear_9477_1508" x1="42.6659" y1="25.4199" x2="42.6659" y2="33.7976" gradientUnits="userSpaceOnUse">
<stop stop-color="#8AB11B"/>
<stop offset="1" stop-color="#6EAF02"/>
</linearGradient>
<linearGradient id="paint6_linear_9477_1508" x1="48.7717" y1="15.2993" x2="47.0147" y2="29.4111" gradientUnits="userSpaceOnUse">
<stop stop-color="#75BE2C"/>
<stop offset="0.86" stop-color="#9DC03B"/>
</linearGradient>
<linearGradient id="paint7_linear_9477_1508" x1="13.3385" y1="25.4555" x2="13.3385" y2="33.8003" gradientUnits="userSpaceOnUse">
<stop stop-color="#8AB11B"/>
<stop offset="1" stop-color="#6EAF02"/>
</linearGradient>
<linearGradient id="paint8_linear_9477_1508" x1="8.93557" y1="15.3688" x2="7.20609" y2="32.3353" gradientUnits="userSpaceOnUse">
<stop stop-color="#75BE2C"/>
<stop offset="0.86" stop-color="#9DC03B"/>
</linearGradient>
</defs>
</svg>
